<svg width="48" height="48" viewBox="0 0 48 48" fill="none" xmlns="http://www.w3.org/2000/svg">
<g id="Group 29">
<rect id="Rectangle 22" width="47.1724" height="48" rx="12" fill="white"/>
<g id="Group 18">
<path id="Vector" fill-rule="evenodd" clip-rule="evenodd" d="M22.1861 6.06531C16.2294 6.62833 11.402 9.7804 8.47016 14.6459C6.56496 17.8073 5.6694 21.5527 5.94557 25.3964C6.62133 34.8 14.7074 42.7615 25.0572 41.9418C34.3434 41.2062 42.0052 32.8576 41.2204 22.5894C40.9329 18.83 39.6254 15.7315 37.5297 12.9338C36.5808 11.6671 36.3937 11.6464 35.4027 10.6094C34.174 9.32306 31.5753 7.84635 29.917 7.19301C27.6932 6.31665 24.8618 5.81231 22.1861 6.06531Z" fill="#108DE8"/>
<path id="Vector_2" fill-rule="evenodd" clip-rule="evenodd" d="M13.342 18.7543C13.1162 19.406 13.2506 26.6519 13.2506 27.9959C13.2506 29.45 12.9635 29.904 15.2396 30.682C21.266 32.7417 27.2334 25.7579 33.2258 29.2133C33.5037 29.3733 33.8419 29.7017 33.9213 29.1713L33.9236 19.85C33.924 18.8473 34.0137 18.5333 33.3483 18.0703C27.9859 14.3369 22.1799 20.7227 16.7388 20.0064C14.7252 19.7414 13.8914 18.7147 13.342 18.7543Z" fill="white"/>
</g>
</g>
</svg>
