<svg width="24" height="25" viewBox="0 0 24 25" fill="none" xmlns="http://www.w3.org/2000/svg">
<g id="search" clip-path="url(#clip0_1637_7755)">
<path id="Vector" d="M15.4999 14.4999H14.7099L14.4299 14.2299C15.6299 12.8299 16.2499 10.9199 15.9099 8.88989C15.4399 6.10989 13.1199 3.88989 10.3199 3.54989C6.08989 3.02989 2.52989 6.58989 3.04989 10.8199C3.38989 13.6199 5.60989 15.9399 8.38989 16.4099C10.4199 16.7499 12.3299 16.1299 13.7299 14.9299L13.9999 15.2099V15.9999L18.2499 20.2499C18.6599 20.6599 19.3299 20.6599 19.7399 20.2499C20.1499 19.8399 20.1499 19.1699 19.7399 18.7599L15.4999 14.4999ZM9.49989 14.4999C7.00989 14.4999 4.99989 12.4899 4.99989 9.99989C4.99989 7.50989 7.00989 5.49989 9.49989 5.49989C11.9899 5.49989 13.9999 7.50989 13.9999 9.99989C13.9999 12.4899 11.9899 14.4999 9.49989 14.4999Z" fill="#919192"/>
</g>
<defs>
<clipPath id="clip0_1637_7755">
<rect width="24" height="24" fill="white" transform="translate(0 0.5)"/>
</clipPath>
</defs>
</svg>
