<svg width="24" height="24" viewBox="0 0 24 24" fill="none" xmlns="http://www.w3.org/2000/svg">
<g id="Subtract">
<path id="Subtract_2" fill-rule="evenodd" clip-rule="evenodd" d="M12 0C5.37258 0 0 5.37258 0 12C0 18.6274 5.37258 24 12 24C18.6274 24 24 18.6274 24 12C24 5.37258 18.6274 0 12 0ZM11.982 13.0097L7.49934 9.75572V16.615H6.75046C6.33322 16.615 6.00157 16.2833 6.00157 15.8661V8.28098C6.00157 8.24867 6.00356 8.21841 6.00742 8.19008C6.02118 8.0716 6.06454 7.95567 6.14067 7.85305C6.38674 7.5214 6.86816 7.44651 7.21051 7.69257L11.9927 11.1695L16.8069 7.64978C17.1386 7.40372 17.6093 7.4786 17.8554 7.82095C17.9862 7.99728 18.0263 8.21291 17.9837 8.4132V15.8768C17.9837 16.2833 17.6521 16.615 17.2348 16.615H16.4859V9.73942L11.982 13.0097Z" fill="#1B1B1B"/>
</g>
</svg>
