<svg width="24" height="24" viewBox="0 0 24 24" fill="none" xmlns="http://www.w3.org/2000/svg">
<g id="thumb_up_alt" clip-path="url(#clip0_1640_25050)">
<path id="Vector" d="M13.8271 2.76708L13.8271 2.7671L13.8331 2.76101C14.0181 2.57288 14.3226 2.56337 14.5259 2.76007C14.642 2.87811 14.6944 3.04486 14.6599 3.22123L13.7108 7.79687L13.4613 8.99997H14.69H20.34C21.7696 8.99997 22.7405 10.4646 22.1799 11.7882C22.1798 11.7886 22.1796 11.789 22.1794 11.7894L18.9227 19.3917C18.7585 19.763 18.3944 20 18 20H9C8.45228 20 8 19.5477 8 19V9.00997C8 8.74178 8.10704 8.48714 8.28711 8.30708L13.8271 2.76708ZM4 19C4 19.5477 3.54772 20 3 20C2.45228 20 2 19.5477 2 19V11C2 10.4523 2.45228 9.99997 3 9.99997C3.54772 9.99997 4 10.4523 4 11V19Z" stroke="#6C6D6E" stroke-width="2"/>
</g>
<defs>
<clipPath id="clip0_1640_25050">
<rect width="24" height="24" fill="white"/>
</clipPath>
</defs>
</svg>
