<svg width="24" height="24" viewBox="0 0 24 24" fill="none" xmlns="http://www.w3.org/2000/svg">
<g id="Social Icons / White / Twitter">
<path id="BG" fill-rule="evenodd" clip-rule="evenodd" d="M0 12C0 5.37258 5.37258 0 12 0C18.6274 0 24 5.37258 24 12C24 18.6274 18.6274 24 12 24C5.37258 24 0 18.6274 0 12Z" fill="#1B1B1B"/>
<path id="Combined-Shape" fill-rule="evenodd" clip-rule="evenodd" d="M6.45389 17.6295L8.72475 17.034L8.94385 17.164C9.86505 17.7104 10.921 17.9996 11.9977 18H12.0001C15.3071 18 17.9987 15.3093 18 12.0022C18.0006 10.3995 17.3771 8.89264 16.2443 7.75892C15.1115 6.62521 13.6051 6.00056 12.0025 6C8.69291 6 6.00131 8.69039 6 11.9973C5.99954 13.1306 6.31675 14.2343 6.91735 15.1892L7.06001 15.4162L6.45389 17.6295ZM15.3898 13.5562C15.5156 13.617 15.6006 13.658 15.6369 13.7186C15.6819 13.7937 15.6819 14.1547 15.5317 14.576C15.3813 14.9972 14.6608 15.3816 14.3142 15.4333C14.0034 15.4798 13.6102 15.4991 13.1781 15.3619C12.9161 15.2788 12.5802 15.1678 12.1498 14.982C10.4589 14.2522 9.31613 12.6138 9.10015 12.3042C9.08503 12.2825 9.07444 12.2673 9.06854 12.2595L9.06708 12.2575C8.97163 12.1302 8.33203 11.2771 8.33203 10.3942C8.33203 9.5637 8.74016 9.12836 8.92801 8.92798C8.94089 8.91425 8.95272 8.90163 8.96332 8.89005C9.12865 8.70954 9.32408 8.66441 9.44432 8.66441C9.56455 8.66441 9.68493 8.66552 9.79002 8.67079C9.80299 8.67144 9.81647 8.67137 9.83042 8.67128C9.93553 8.67067 10.0666 8.6699 10.1958 8.98031C10.2456 9.09977 10.3183 9.27686 10.3951 9.46365C10.5503 9.84138 10.7218 10.2587 10.752 10.3191C10.7971 10.4094 10.8271 10.5146 10.767 10.635C10.758 10.6531 10.7496 10.6701 10.7417 10.6864C10.6965 10.7785 10.6633 10.8463 10.5866 10.9358C10.5565 10.971 10.5254 11.0089 10.4942 11.0468C10.4322 11.1223 10.3701 11.1979 10.3161 11.2517C10.2258 11.3416 10.1318 11.4392 10.237 11.6197C10.3422 11.8002 10.7042 12.3906 11.2404 12.8687C11.8168 13.3827 12.3178 13.5999 12.5717 13.71C12.6213 13.7315 12.6615 13.7489 12.691 13.7637C12.8713 13.854 12.9765 13.8389 13.0817 13.7186C13.1869 13.5982 13.5326 13.192 13.6528 13.0116C13.7731 12.8311 13.8933 12.8612 14.0587 12.9213C14.224 12.9815 15.1108 13.4177 15.2912 13.5079C15.3264 13.5256 15.3593 13.5415 15.3898 13.5562Z" fill="white"/>
</g>
</svg>
